<svg width="31" height="31" viewBox="0 0 31 31" fill="none" xmlns="http://www.w3.org/2000/svg">
<path d="M27.31 29.7947L25.0161 27.5367H4.69355C3.90502 27.5367 3.22999 27.2559 2.66846 26.6944C2.10693 26.1329 1.82616 25.4578 1.82616 24.6693V7.46499C1.82616 6.67646 2.10693 6.00143 2.66846 5.4399C3.22999 4.87838 3.90502 4.59761 4.69355 4.59761H6.16308V8.68363L0.930108 3.45066C0.643369 3.16392 0.5 2.82342 0.5 2.42915C0.5 2.03489 0.643369 1.69438 0.930108 1.40765C1.21685 1.12091 1.55735 0.977539 1.95161 0.977539C2.34588 0.977539 2.68638 1.12091 2.97312 1.40765L29.353 27.7876C29.6398 28.0743 29.7832 28.4088 29.7832 28.7912C29.7832 29.1735 29.6398 29.508 29.353 29.7947C29.0663 30.0815 28.7258 30.2248 28.3315 30.2248C27.9373 30.2248 27.5968 30.0815 27.31 29.7947ZM29.6039 22.698C29.3411 22.8174 29.0783 22.8533 28.8154 22.8055C28.5526 22.7577 28.3017 22.6143 28.0627 22.3754L22.5789 16.8915C22.6983 15.8879 22.5968 14.9142 22.2742 13.9704C21.9516 13.0265 21.4319 12.1962 20.7151 11.4793C20.0221 10.7864 19.2037 10.2786 18.2599 9.95603C17.316 9.63345 16.3423 9.5319 15.3387 9.65137L10.6792 5.02772C10.5358 4.88435 10.4343 4.72903 10.3746 4.56177C10.3148 4.3945 10.2849 4.21529 10.2849 4.02413C10.2849 3.83298 10.3148 3.65974 10.3746 3.50442C10.4343 3.3491 10.5239 3.19976 10.6434 3.05639L11.0018 2.66213C11.2646 2.37539 11.5812 2.14839 11.9516 1.98112C12.322 1.81386 12.7103 1.73023 13.1165 1.73023H19.2097C19.6159 1.73023 20.0042 1.81386 20.3746 1.98112C20.7449 2.14839 21.0615 2.37539 21.3244 2.66213L23.1165 4.59761H27.6326C28.4211 4.59761 29.0962 4.87838 29.6577 5.4399C30.2192 6.00143 30.5 6.67646 30.5 7.46499V21.3718C30.5 21.7063 30.4164 21.9811 30.2491 22.1962C30.0818 22.4112 29.8668 22.5785 29.6039 22.698ZM16.1631 22.5188C16.7127 22.5188 17.2443 22.459 17.7581 22.3395C18.2718 22.2201 18.7676 22.0289 19.2455 21.7661L10.4642 12.9847C10.2013 13.4626 10.0102 13.9584 9.89068 14.4722C9.77121 14.9859 9.71147 15.5176 9.71147 16.0671C9.71147 17.8593 10.3387 19.3826 11.5932 20.637C12.8477 21.8915 14.371 22.5188 16.1631 22.5188ZM16.1631 19.6514C15.1595 19.6514 14.3112 19.3049 13.6183 18.6119C12.9253 17.919 12.5789 17.0707 12.5789 16.0671C12.5789 15.5892 12.6685 15.1293 12.8477 14.6872C13.0269 14.2452 13.2838 13.8569 13.6183 13.5223L18.7079 18.6119C18.3734 18.9465 17.9851 19.2033 17.543 19.3826C17.101 19.5618 16.641 19.6514 16.1631 19.6514Z" fill="#8E8E8E"/>
<path d="M27.31 29.7947L25.0161 27.5367H4.69355C3.90502 27.5367 3.22999 27.2559 2.66846 26.6944C2.10693 26.1329 1.82616 25.4578 1.82616 24.6693V7.46499C1.82616 6.67646 2.10693 6.00143 2.66846 5.4399C3.22999 4.87838 3.90502 4.59761 4.69355 4.59761H6.16308V8.68363L0.930108 3.45066C0.643369 3.16392 0.5 2.82342 0.5 2.42915C0.5 2.03489 0.643369 1.69438 0.930108 1.40765C1.21685 1.12091 1.55735 0.977539 1.95161 0.977539C2.34588 0.977539 2.68638 1.12091 2.97312 1.40765L29.353 27.7876C29.6398 28.0743 29.7832 28.4088 29.7832 28.7912C29.7832 29.1735 29.6398 29.508 29.353 29.7947C29.0663 30.0815 28.7258 30.2248 28.3315 30.2248C27.9373 30.2248 27.5968 30.0815 27.31 29.7947ZM29.6039 22.698C29.3411 22.8174 29.0783 22.8533 28.8154 22.8055C28.5526 22.7577 28.3017 22.6143 28.0627 22.3754L22.5789 16.8915C22.6983 15.8879 22.5968 14.9142 22.2742 13.9704C21.9516 13.0265 21.4319 12.1962 20.7151 11.4793C20.0221 10.7864 19.2037 10.2786 18.2599 9.95603C17.316 9.63345 16.3423 9.5319 15.3387 9.65137L10.6792 5.02772C10.5358 4.88435 10.4343 4.72903 10.3746 4.56177C10.3148 4.3945 10.2849 4.21529 10.2849 4.02413C10.2849 3.83298 10.3148 3.65974 10.3746 3.50442C10.4343 3.3491 10.5239 3.19976 10.6434 3.05639L11.0018 2.66213C11.2646 2.37539 11.5812 2.14839 11.9516 1.98112C12.322 1.81386 12.7103 1.73023 13.1165 1.73023H19.2097C19.6159 1.73023 20.0042 1.81386 20.3746 1.98112C20.7449 2.14839 21.0615 2.37539 21.3244 2.66213L23.1165 4.59761H27.6326C28.4211 4.59761 29.0962 4.87838 29.6577 5.4399C30.2192 6.00143 30.5 6.67646 30.5 7.46499V21.3718C30.5 21.7063 30.4164 21.9811 30.2491 22.1962C30.0818 22.4112 29.8668 22.5785 29.6039 22.698ZM16.1631 22.5188C16.7127 22.5188 17.2443 22.459 17.7581 22.3395C18.2718 22.2201 18.7676 22.0289 19.2455 21.7661L10.4642 12.9847C10.2013 13.4626 10.0102 13.9584 9.89068 14.4722C9.77121 14.9859 9.71147 15.5176 9.71147 16.0671C9.71147 17.8593 10.3387 19.3826 11.5932 20.637C12.8477 21.8915 14.371 22.5188 16.1631 22.5188ZM16.1631 19.6514C15.1595 19.6514 14.3112 19.3049 13.6183 18.6119C12.9253 17.919 12.5789 17.0707 12.5789 16.0671C12.5789 15.5892 12.6685 15.1293 12.8477 14.6872C13.0269 14.2452 13.2838 13.8569 13.6183 13.5223L18.7079 18.6119C18.3734 18.9465 17.9851 19.2033 17.543 19.3826C17.101 19.5618 16.641 19.6514 16.1631 19.6514Z" fill="black" fill-opacity="0.2"/>
</svg>
