<svg width="89" height="58" viewBox="0 0 89 58" fill="none" xmlns="http://www.w3.org/2000/svg">
<path d="M10.4004 52.3279V53.0896H6.09961V54.3201H9.24023V57.5662H2.06836V54.3201H5.19727V53.0896H0.908203V52.3279H10.4004ZM9.49805 47.6287V48.3904H7.89258V50.5818H9.46289V51.3435H1.83398V50.5818H3.4043V48.3904H1.79883V47.6287H9.49805ZM2.98242 55.0466V56.8162H8.33789V55.0466H2.98242ZM4.31836 50.5818H6.97852V48.3904H4.31836V50.5818ZM14.8887 48.906C14.8887 50.1482 15.9434 51.3435 17.4434 51.824L16.9863 52.5505C15.8086 52.158 14.8887 51.3494 14.4434 50.3357C13.9746 51.4548 13.0078 52.3748 11.7832 52.7966L11.3262 52.0701C12.8496 51.5427 13.9629 50.2419 13.9629 48.8943V48.6013H11.6074V47.8396H17.2207V48.6013H14.8887V48.906ZM19.9043 47.2888V52.6794H18.9902V50.3826H16.8926V49.6208H18.9902V47.2888H19.9043ZM19.9043 53.1951V55.6912H14.0918V56.8513H20.3027V57.5896H13.1777V54.988H18.9902V53.9451H13.1543V53.1951H19.9043ZM27.709 50.7107V51.4607H25.5996V52.9138C26.5723 52.8728 27.5449 52.8025 28.4473 52.7029L28.5176 53.3826C26.2793 53.6873 23.7949 53.7576 21.8379 53.7576L21.6973 53.0076C22.6113 53.0017 23.6367 52.99 24.6855 52.949V51.4607H22.6465V47.9685H27.627V48.7302H23.5723V50.7107H27.709ZM30.2402 47.3005V55.0935H29.3145V47.3005H30.2402ZM30.5801 56.7107V57.4841H23.4785V54.5544H24.3926V56.7107H30.5801ZM39.4043 48.5076V51.2263H40.9863V47.5115H41.8652V57.1794H40.9863V51.988H39.4043V54.906H35.4199V48.5076H39.4043ZM36.2871 49.2458V54.1677H38.5371V49.2458H36.2871ZM43.9629 47.2888V57.7068H43.0723V47.2888H43.9629ZM53.7832 50.8162V51.5779H46.6113V47.8279H47.5488V50.8162H53.7832ZM54.8965 53.0896V53.8513H52.4238V57.7068H51.5098V53.8513H48.8027V57.7068H47.8887V53.8513H45.4043V53.0896H54.8965ZM64.377 47.2888V52.8787H63.4629V47.2888H64.377ZM58.541 53.406V54.6716H63.4629V53.406H64.377V57.5662H57.627V53.406H58.541ZM58.541 56.8162H63.4629V55.4099H58.541V56.8162ZM58.752 47.8044C60.334 47.7927 61.4824 48.7654 61.4824 50.1951C61.4824 51.613 60.334 52.5857 58.752 52.5857C57.1699 52.5857 56.0215 51.613 56.0215 50.1951C56.0215 48.7654 57.1699 47.7927 58.752 47.8044ZM58.752 48.5779C57.6855 48.5662 56.9121 49.2458 56.9238 50.1951C56.9121 51.1443 57.6855 51.824 58.752 51.824C59.8066 51.824 60.5801 51.1443 60.5801 50.1951C60.5801 49.2458 59.8066 48.5662 58.752 48.5779ZM74.7363 47.2888V57.7068H73.8223V47.2888H74.7363ZM67.7285 48.3201V54.2263C69.3164 54.2205 70.9629 54.0916 72.709 53.7224L72.8379 54.5076C70.9863 54.8943 69.334 55.0232 67.6699 55.0232H66.8262V48.3201H67.7285ZM84.5801 47.2888V51.4138H86.3262V52.1873H84.5801V57.7302H83.666V47.2888H84.5801ZM81.8379 48.3083V49.0701H77.8887V54.3435C79.7754 54.3435 81.1113 54.2556 82.6582 53.9685L82.7754 54.7654C81.1465 55.0583 79.7754 55.1169 77.7949 55.1169H76.9746V48.3083H81.8379ZM87.9902 56.8279C87.5801 56.8279 87.2285 56.488 87.2402 56.0662C87.2285 55.656 87.5801 55.3162 87.9902 55.3162C88.4004 55.3162 88.7402 55.656 88.7402 56.0662C88.7402 56.488 88.4004 56.8279 87.9902 56.8279Z" fill="white"/>
<path d="M56.5512 24.746L53.7597 21.9694V20.492H52.2745L48.9879 17.2229V8.29083C48.9879 7.37895 49.1644 6.47389 49.5174 5.57565C49.8703 4.67744 50.331 3.87269 50.8994 3.16142C51.4678 2.45014 52.1141 1.87337 52.8383 1.43112C53.5625 0.988839 54.2959 0.7677 55.0385 0.7677C55.4602 0.7677 55.8178 0.922718 56.1111 1.23275C56.4045 1.54282 56.5512 1.91214 56.5512 2.34071V24.746ZM60.3741 34.3757C60.0991 34.6492 59.7713 34.786 59.3909 34.786C59.0104 34.786 58.6826 34.6492 58.4076 34.3757L56.1112 32.1324H56.5512V32.2418C56.5512 32.6339 56.4205 32.9599 56.1593 33.2198C55.898 33.4797 55.5703 33.6096 55.1761 33.6096C54.7819 33.6096 54.4541 33.4797 54.1929 33.2198C53.9316 32.9599 53.8009 32.6339 53.8009 32.2418V29.8344L27.2883 3.46233C27.0132 3.18876 26.8757 2.85592 26.8757 2.46381C26.8757 2.07171 27.0132 1.73887 27.2883 1.4653C27.5633 1.19173 27.891 1.05495 28.2715 1.05495C28.6519 1.05495 28.9797 1.19173 29.2547 1.4653L60.3741 32.4607C60.6491 32.7342 60.7866 33.0534 60.7866 33.4182C60.7866 33.7829 60.6491 34.1021 60.3741 34.3757ZM44.725 12.9279L41.9747 10.2469V2.13553C41.9747 1.74343 42.1054 1.41743 42.3667 1.15754C42.6279 0.897645 42.9557 0.7677 43.3499 0.7677C43.7441 0.7677 44.0718 0.897645 44.3331 1.15754C44.5944 1.41743 44.725 1.74343 44.725 2.13553V12.9279ZM39.637 7.92156L36.8867 5.18585V2.13553C36.8867 1.74343 37.0173 1.41743 37.2786 1.15754C37.5399 0.897645 37.8676 0.7677 38.2619 0.7677C38.6561 0.7677 38.9838 0.897645 39.2451 1.15754C39.5064 1.41743 39.637 1.74343 39.637 2.13553V7.92156ZM34.549 2.8605L32.445 0.7677C33.0409 0.7677 33.5405 0.968322 33.9439 1.36957C34.3473 1.77078 34.549 2.26776 34.549 2.8605ZM38.2619 33.596C37.8676 33.596 37.5399 33.466 37.2786 33.2061C37.0173 32.9463 36.8867 32.6203 36.8867 32.2281V18.5223C35.4657 18.1941 34.2625 17.46 33.277 16.3201C32.2915 15.1802 31.7987 13.8261 31.7987 12.2576V4.03686L34.549 6.77253V12.2576H36.8867V9.09788L39.637 11.8335V12.2576H40.0633L43.6386 15.814C43.1803 16.4979 42.605 17.0747 41.9128 17.5443C41.2207 18.0139 40.4621 18.34 39.637 18.5223V32.2281C39.637 32.6203 39.5064 32.9463 39.2451 33.2061C38.9838 33.466 38.6561 33.596 38.2619 33.596Z" fill="white"/>
</svg>
