<svg width="24" height="24" viewBox="0 0 24 24" fill="none" xmlns="http://www.w3.org/2000/svg">
<mask id="mask0_2135_138" style="mask-type:alpha" maskUnits="userSpaceOnUse" x="0" y="0" width="24" height="24">
<rect width="24" height="24" fill="#D9D9D9"/>
</mask>
<g mask="url(#mask0_2135_138)">
<path d="M14.975 9.025C15.325 9.375 15.6083 9.79583 15.825 10.2875C16.0417 10.7792 16.1667 11.2917 16.2 11.825C16.2 12.075 16.1108 12.2875 15.9325 12.4625C15.754 12.6375 15.5432 12.725 15.3 12.725C15.043 12.725 14.8246 12.6375 14.6448 12.4625C14.4649 12.2875 14.375 12.075 14.375 11.825C14.4083 11.4917 14.3708 11.1833 14.2625 10.9C14.1542 10.6167 14 10.3708 13.8 10.1625C13.6 9.95417 13.3625 9.8 13.0875 9.7C12.8125 9.6 12.5083 9.56667 12.175 9.6C11.925 9.6 11.7125 9.51083 11.5375 9.3325C11.3625 9.154 11.275 8.94317 11.275 8.7C11.275 8.45 11.3625 8.2375 11.5375 8.0625C11.7125 7.8875 11.925 7.8 12.175 7.8C12.7083 7.83333 13.2167 7.95417 13.7 8.1625C14.1833 8.37083 14.6083 8.65833 14.975 9.025ZM12 6.6C11.722 6.6 11.4513 6.60875 11.188 6.62625C10.9247 6.64375 10.6613 6.67583 10.398 6.7225C10.1493 6.7575 9.91251 6.7125 9.68751 6.5875C9.46251 6.4625 9.31668 6.27917 9.25001 6.0375C9.18335 5.79583 9.21251 5.56667 9.33751 5.35C9.46251 5.13333 9.6481 5.00625 9.89426 4.96875C10.2481 4.90625 10.5988 4.8625 10.9463 4.8375C11.2938 4.8125 11.645 4.8 12 4.8C14.2333 4.8 16.2875 5.37083 18.1625 6.5125C20.0375 7.65417 21.4594 9.226 22.4283 11.228C22.4928 11.3593 22.5375 11.4877 22.5625 11.613C22.5875 11.7383 22.6 11.8673 22.6 12C22.6 12.1327 22.5875 12.2617 22.5625 12.387C22.5375 12.5123 22.5 12.6417 22.45 12.775C22.1542 13.4053 21.7886 13.9963 21.3533 14.5478C20.9178 15.0992 20.4417 15.6167 19.925 16.1C19.7417 16.2667 19.5292 16.3417 19.2875 16.325C19.0458 16.3083 18.8417 16.1987 18.675 15.996C18.5083 15.7932 18.4375 15.5723 18.4625 15.3335C18.4875 15.0945 18.5917 14.8833 18.775 14.7C19.2083 14.3167 19.5947 13.9 19.934 13.45C20.2735 13 20.5705 12.5167 20.825 12C20.0083 10.3167 18.8042 8.99583 17.2125 8.0375C15.6208 7.07917 13.8833 6.6 12 6.6ZM12 19.2C9.81668 19.2 7.80835 18.6208 5.97501 17.4625C4.14168 16.3042 2.69943 14.7651 1.64826 12.8452C1.5661 12.7151 1.51251 12.5789 1.48751 12.4367C1.46251 12.2947 1.45001 12.1489 1.45001 11.9992C1.45001 11.8497 1.46251 11.7042 1.48751 11.5625C1.51251 11.4208 1.56668 11.2833 1.65001 11.15C2.03335 10.4 2.48135 9.70017 2.99401 9.0505C3.50685 8.40083 4.09218 7.809 4.75001 7.275L2.87501 5.4C2.69168 5.21667 2.60001 5.00833 2.60001 4.775C2.60001 4.54167 2.69168 4.33333 2.87501 4.15C3.05835 3.96667 3.27085 3.875 3.51251 3.875C3.75418 3.875 3.96668 3.96667 4.15001 4.15L19.85 19.85C20.0333 20.0333 20.125 20.2417 20.125 20.475C20.125 20.7083 20.0333 20.9167 19.85 21.1C19.6667 21.2833 19.4542 21.375 19.2125 21.375C18.9708 21.375 18.7583 21.2833 18.575 21.1L15.95 18.5C15.31 18.7333 14.6608 18.9083 14.0025 19.025C13.3442 19.1417 12.6767 19.2 12 19.2ZM6.02501 8.575C5.44168 9.04167 4.90001 9.55417 4.40001 10.1125C3.90001 10.6708 3.49168 11.3 3.17501 12C3.99168 13.6833 5.19585 15.0042 6.78751 15.9625C8.37918 16.9208 10.1167 17.4 12 17.4C12.4368 17.4 12.8627 17.3708 13.2775 17.3125C13.6925 17.2542 14.1083 17.175 14.525 17.075L13.4 15.95C13.1667 16.0333 12.9333 16.0958 12.7 16.1375C12.4667 16.1792 12.2333 16.2 12 16.2C10.8333 16.2 9.84168 15.7917 9.02501 14.975C8.20835 14.1583 7.80001 13.1667 7.80001 12C7.80001 11.7667 7.82918 11.5333 7.88751 11.3C7.94585 11.0667 8.00001 10.8333 8.05001 10.6L6.02501 8.575Z" fill="#8E8E8E"/>
</g>
</svg>
