<svg width="235" height="61" viewBox="0 0 235 61" fill="none" xmlns="http://www.w3.org/2000/svg">
<path d="M51.1595 49.4767V43.9302H55.6859V34.3681H61.5326V43.9302H71.4454V49.4767H51.1595ZM51.6683 23.687H64.9365V17.89C64.9365 15.854 63.9715 15.143 62.0374 15.143H51.6643V9.60049H64.8315C68.8491 9.60049 70.7307 11.584 70.7307 15.6035V39.8662H64.9365V29.2336H51.6683V23.6911V23.687Z" fill="#175C8D"/>
<path d="M75.1562 17.8375C75.1562 12.3435 78.665 9.03896 83.7486 9.03896C88.8322 9.03896 92.3411 12.3435 92.3411 17.8375V24.0425C92.3411 29.5366 88.8322 32.9461 83.7486 32.9461C78.665 32.9461 75.1562 29.5366 75.1562 24.0425V17.8375ZM84.4108 49.4767C80.2923 49.4767 78.1078 47.5417 78.1078 43.4737V35.4386H83.9021V42.2052C83.9021 43.7807 84.4593 44.1887 85.9371 44.1887H95.749V9.29347H101.289V49.4767H84.4108ZM81.0029 24.0951C81.0029 26.6401 82.4283 27.5046 83.7486 27.5046C85.069 27.5046 86.4943 26.6401 86.4943 24.0951V17.8375C86.4943 15.345 85.069 14.428 83.7486 14.428C82.4283 14.428 81.0029 15.345 81.0029 17.8375V24.0951Z" fill="#175C8D"/>
<path d="M31.8952 21.4046L31.3218 21.0814C31.1926 21.0087 31.0634 20.94 30.9342 20.8754C30.9503 22.7215 30.5021 24.596 29.529 26.3169L24.1022 35.9113C21.2233 41.0013 14.8516 42.8717 9.69939 40.2176C9.73573 43.9665 11.7102 47.5942 15.2029 49.5737L15.7763 49.8968C17.5287 50.8866 19.4345 51.339 21.3121 51.3027C17.4843 54.9909 12.3966 55.201 12.3966 55.201C14.9526 58.0329 19.6849 57.8551 19.6849 57.8551C20.763 57.8551 21.7966 57.4794 22.685 56.9825C24.2112 56.1302 25.4468 54.8455 26.3109 53.3225L30.5708 45.7965L31.1401 44.7947L36.0016 36.2021C38.9533 30.9828 37.1201 24.3576 31.9033 21.4046H31.8952Z" fill="#F6931F"/>
<path d="M16.5313 25.1817C19.4103 20.0917 25.7819 18.2213 30.9342 20.8754C30.8978 17.1265 28.9234 13.4988 25.4307 11.5194L24.8573 11.1962C23.1049 10.2064 21.199 9.754 19.3215 9.79035C23.1493 6.10207 28.2369 5.89201 28.2369 5.89201C25.681 3.06015 20.9487 3.23386 20.9487 3.23386C19.7697 3.23386 18.6512 3.68227 17.7104 4.2438C16.2931 5.09214 15.1423 6.32022 14.3307 7.75837L10.0668 15.2925L9.49749 16.2943L4.64002 24.8909C1.68838 30.1102 3.52155 36.7354 8.73838 39.6884L9.31175 40.0116C9.44096 40.0843 9.57017 40.153 9.69938 40.2176C9.68323 38.3715 10.1314 36.497 11.1045 34.7761L16.5313 25.1817Z" fill="#175C8D"/>
<path d="M24.1022 35.9113L29.529 26.3169C30.5021 24.596 30.9544 22.7215 30.9342 20.8754C25.7819 18.2213 19.4103 20.0917 16.5313 25.1817L11.1045 34.7761C10.1314 36.497 9.67919 38.3715 9.69938 40.2176C14.8516 42.8717 21.2233 41.0013 24.1022 35.9113Z" fill="#194766"/>
<path d="M116.996 32.4735H111.185L114.194 13.1958C114.601 10.3923 116.794 8.96221 119.596 8.96221H121.074C123.981 8.96221 126.069 10.5417 126.477 13.1958L129.432 32.4735H123.622L121.227 15.6439C121.127 14.9814 120.921 14.5734 120.513 14.5734H120.157C119.75 14.5734 119.544 14.9289 119.443 15.6439L116.996 32.4735ZM132.646 34.259C136.672 34.259 138.202 35.8911 138.202 39.6157V49.2545H132.392V41.6558C132.392 40.0237 132.037 39.5672 130.252 39.5672H114.044V34.2631H132.65L132.646 34.259ZM138.202 8.96221V32.4735H132.392V8.96221H138.202Z" fill="#175C8D"/>
<path d="M143.145 9.26923H159.813V14.8279H148.955V24.3132C148.955 25.9978 149.569 26.8098 151.301 26.8098H160.067V32.3684H150.179C145.232 32.3684 143.145 30.5344 143.145 24.7697V9.26923ZM151.099 49.2505C147.021 49.2505 145.135 47.5659 145.135 43.5383V35.786H150.946V42.2133C150.946 43.5908 151.354 43.9463 152.831 43.9463H162.518V8.96221H168.381V21.5581H171.337V27.1168H168.381V49.2505H151.103H151.099Z" fill="#175C8D"/>
<path d="M185.505 9.26923C189.531 9.26923 191.622 11.2568 191.622 15.2884V29.1609H193.1V34.7196H173.63V29.1609H176.945V20.2856H182.808V29.1609H185.764V17.583C185.764 15.5429 184.795 14.8279 182.909 14.8279H174.498V9.26923H185.509H185.505ZM182.55 49.2505C178.419 49.2505 176.23 47.3114 176.23 43.2313V36.9576H182.093V41.9547C182.093 43.5343 182.602 43.9423 184.132 43.9423H193.868V8.96221H199.678V21.3036H202.686V26.8623H199.678V49.2505H182.55Z" fill="#175C8D"/>
<path d="M212.47 48.8425C207.374 48.8425 205.436 46.7014 205.436 41.2437V26.2523H215.478V14.8804H205.743V9.32174H221.341V31.5039H211.25V40.7347C211.25 42.5688 211.912 43.2353 213.596 43.2353H222.108V48.8465H212.474L212.47 48.8425ZM231.839 8.96221V49.2505H225.976V8.96221H231.839Z" fill="#175C8D"/>
</svg>
