<svg width="24" height="25" viewBox="0 0 24 25" fill="none" xmlns="http://www.w3.org/2000/svg">
<mask id="mask0_16343_38065" style="mask-type:alpha" maskUnits="userSpaceOnUse" x="0" y="0" width="24" height="25">
<rect y="0.300781" width="24" height="24" fill="#D9D9D9"/>
</mask>
<g mask="url(#mask0_16343_38065)">
<path d="M4.25003 17.9352C4.03753 17.9352 3.85941 17.8633 3.71566 17.7195C3.57191 17.5757 3.50003 17.3975 3.50003 17.1849C3.50003 16.9723 3.57191 16.7942 3.71566 16.6506C3.85941 16.507 4.03753 16.4352 4.25003 16.4352H19.75C19.9625 16.4352 20.1406 16.5071 20.2844 16.651C20.4281 16.7948 20.5 16.973 20.5 17.1856C20.5 17.3981 20.4281 17.5762 20.2844 17.7198C20.1406 17.8634 19.9625 17.9352 19.75 17.9352H4.25003ZM4.25003 13.0506C4.03753 13.0506 3.85941 12.9787 3.71566 12.8349C3.57191 12.6911 3.50003 12.5129 3.50003 12.3003C3.50003 12.0877 3.57191 11.9096 3.71566 11.766C3.85941 11.6224 4.03753 11.5506 4.25003 11.5506H19.75C19.9625 11.5506 20.1406 11.6225 20.2844 11.7663C20.4281 11.9102 20.5 12.0884 20.5 12.3009C20.5 12.5135 20.4281 12.6916 20.2844 12.8352C20.1406 12.9788 19.9625 13.0506 19.75 13.0506H4.25003ZM4.25003 8.16599C4.03753 8.16599 3.85941 8.09408 3.71566 7.95027C3.57191 7.80647 3.50003 7.62826 3.50003 7.41566C3.50003 7.20308 3.57191 7.025 3.71566 6.88141C3.85941 6.73781 4.03753 6.66602 4.25003 6.66602H19.75C19.9625 6.66602 20.1406 6.73792 20.2844 6.88174C20.4281 7.02556 20.5 7.20376 20.5 7.41634C20.5 7.62894 20.4281 7.80703 20.2844 7.95061C20.1406 8.0942 19.9625 8.16599 19.75 8.16599H4.25003Z" fill="#4B4B4B"/>
</g>
</svg>
