<svg width="24" height="25" viewBox="0 0 24 25" fill="none" xmlns="http://www.w3.org/2000/svg">
<mask id="mask0_16343_38024" style="mask-type:alpha" maskUnits="userSpaceOnUse" x="0" y="0" width="24" height="25">
<rect y="0.300781" width="24" height="24" fill="#D9D9D9"/>
</mask>
<g mask="url(#mask0_16343_38024)">
<path d="M9.51922 15.9162C7.81154 15.9162 6.36539 15.3239 5.18079 14.1393C3.99618 12.9547 3.40387 11.5086 3.40387 9.8009C3.40387 8.09321 3.99618 6.64706 5.18079 5.46245C6.36539 4.27785 7.81154 3.68555 9.51922 3.68555C11.2269 3.68555 12.6731 4.27785 13.8577 5.46245C15.0423 6.64706 15.6346 8.09321 15.6346 9.8009C15.6346 10.515 15.5147 11.197 15.275 11.847C15.0352 12.497 14.7153 13.0624 14.3153 13.5432L20.0692 19.297C20.2077 19.4355 20.2785 19.6096 20.2817 19.8192C20.2849 20.0288 20.2141 20.206 20.0692 20.3509C19.9243 20.4957 19.7487 20.5682 19.5423 20.5682C19.3359 20.5682 19.1603 20.4957 19.0154 20.3509L13.2615 14.597C12.7615 15.0098 12.1865 15.3329 11.5365 15.5662C10.8865 15.7996 10.2141 15.9162 9.51922 15.9162ZM9.51922 14.4163C10.8077 14.4163 11.899 13.9692 12.7933 13.0749C13.6875 12.1807 14.1346 11.0894 14.1346 9.8009C14.1346 8.51243 13.6875 7.42108 12.7933 6.52685C11.899 5.63261 10.8077 5.1855 9.51922 5.1855C8.23075 5.1855 7.1394 5.63261 6.24517 6.52685C5.35095 7.42108 4.90384 8.51243 4.90384 9.8009C4.90384 11.0894 5.35095 12.1807 6.24517 13.0749C7.1394 13.9692 8.23075 14.4163 9.51922 14.4163Z" fill="#4B4B4B"/>
</g>
</svg>
