<svg width="24" height="25" viewBox="0 0 24 25" fill="none" xmlns="http://www.w3.org/2000/svg">
<mask id="mask0_11778_34186" style="mask-type:alpha" maskUnits="userSpaceOnUse" x="0" y="0" width="24" height="25">
<rect y="0.300293" width="24" height="24" fill="#D9D9D9"/>
</mask>
<g mask="url(#mask0_11778_34186)">
<path d="M9.51928 15.9158C7.8116 15.9158 6.36546 15.3235 5.18086 14.1389C3.99624 12.9542 3.40393 11.5081 3.40393 9.80041C3.40393 8.09273 3.99624 6.64657 5.18086 5.46196C6.36546 4.27736 7.8116 3.68506 9.51928 3.68506C11.227 3.68506 12.6731 4.27736 13.8577 5.46196C15.0423 6.64657 15.6347 8.09273 15.6347 9.80041C15.6347 10.5145 15.5148 11.1966 15.275 11.8466C15.0353 12.4966 14.7154 13.0619 14.3154 13.5427L20.0693 19.2966C20.2077 19.435 20.2786 19.6091 20.2818 19.8187C20.285 20.0283 20.2141 20.2055 20.0693 20.3504C19.9244 20.4953 19.7488 20.5677 19.5424 20.5677C19.336 20.5677 19.1603 20.4953 19.0155 20.3504L13.2616 14.5965C12.7616 15.0094 12.1866 15.3324 11.5366 15.5658C10.8866 15.7991 10.2141 15.9158 9.51928 15.9158ZM9.51928 14.4158C10.8077 14.4158 11.8991 13.9687 12.7933 13.0745C13.6876 12.1802 14.1347 11.0889 14.1347 9.80041C14.1347 8.51194 13.6876 7.42059 12.7933 6.52636C11.8991 5.63213 10.8077 5.18501 9.51928 5.18501C8.23081 5.18501 7.13946 5.63213 6.24523 6.52636C5.35101 7.42059 4.90391 8.51194 4.90391 9.80041C4.90391 11.0889 5.35101 12.1802 6.24523 13.0745C7.13946 13.9687 8.23081 14.4158 9.51928 14.4158Z" fill="#4B4B4B"/>
</g>
</svg>
