<svg width="24" height="24" viewBox="0 0 24 24" fill="none" xmlns="http://www.w3.org/2000/svg">
<mask id="mask0_2135_22" style="mask-type:alpha" maskUnits="userSpaceOnUse" x="0" y="0" width="24" height="24">
<rect width="24" height="24" fill="#D9D9D9"/>
</mask>
<g mask="url(#mask0_2135_22)">
<path d="M12 16.2C13.1667 16.2 14.1583 15.7917 14.975 14.975C15.7917 14.1583 16.2 13.1667 16.2 12C16.2 10.8333 15.7917 9.84165 14.975 9.02499C14.1583 8.20832 13.1667 7.79999 12 7.79999C10.8333 7.79999 9.84167 8.20832 9.02501 9.02499C8.20834 9.84165 7.80001 10.8333 7.80001 12C7.80001 13.1667 8.20834 14.1583 9.02501 14.975C9.84167 15.7917 10.8333 16.2 12 16.2ZM12 14.4C11.3333 14.4 10.7667 14.1667 10.3 13.7C9.83334 13.2333 9.60001 12.6667 9.60001 12C9.60001 11.3333 9.83334 10.7667 10.3 10.3C10.7667 9.83332 11.3333 9.59999 12 9.59999C12.6667 9.59999 13.2333 9.83332 13.7 10.3C14.1667 10.7667 14.4 11.3333 14.4 12C14.4 12.6667 14.1667 13.2333 13.7 13.7C13.2333 14.1667 12.6667 14.4 12 14.4ZM12 19.2C9.83334 19.2 7.84167 18.6208 6.02501 17.4625C4.20834 16.3042 2.76667 14.775 1.70001 12.875C1.61667 12.7417 1.55834 12.6019 1.52501 12.4557C1.49167 12.3096 1.47501 12.1596 1.47501 12.0057C1.47501 11.8519 1.49167 11.7 1.52501 11.55C1.55834 11.4 1.61667 11.2583 1.70001 11.125C2.76667 9.22499 4.20834 7.69582 6.02501 6.53749C7.84167 5.37915 9.83334 4.79999 12 4.79999C14.1667 4.79999 16.1583 5.37915 17.975 6.53749C19.7917 7.69582 21.2333 9.22499 22.3 11.125C22.3833 11.2583 22.4417 11.3981 22.475 11.5442C22.5083 11.6904 22.525 11.8404 22.525 11.9942C22.525 12.1481 22.5083 12.3 22.475 12.45C22.4417 12.6 22.3833 12.7417 22.3 12.875C21.2333 14.775 19.7917 16.3042 17.975 17.4625C16.1583 18.6208 14.1667 19.2 12 19.2ZM12 17.4C13.8667 17.4 15.5917 16.9167 17.175 15.95C18.7583 14.9833 19.975 13.6667 20.825 12C19.975 10.3333 18.7583 9.01665 17.175 8.04999C15.5917 7.08332 13.8667 6.59999 12 6.59999C10.1333 6.59999 8.40834 7.08332 6.82501 8.04999C5.24167 9.01665 4.02501 10.3333 3.17501 12C4.02501 13.6667 5.24167 14.9833 6.82501 15.95C8.40834 16.9167 10.1333 17.4 12 17.4Z" fill="#8E8E8E"/>
</g>
</svg>
