<svg width="20" height="20" viewBox="0 0 20 20" fill="none" xmlns="http://www.w3.org/2000/svg">
<mask id="mask0_2135_37" style="mask-type:alpha" maskUnits="userSpaceOnUse" x="0" y="0" width="20" height="20">
<rect width="20" height="20" fill="#D9D9D9"/>
</mask>
<g mask="url(#mask0_2135_37)">
<path d="M2.33146 17C2.17993 17 2.04708 16.9657 1.93292 16.8969C1.81889 16.8282 1.73014 16.7375 1.66667 16.625C1.59722 16.5139 1.56597 16.3889 1.57292 16.25C1.57986 16.1112 1.61805 15.9792 1.6875 15.8542L9.35417 3.06254C9.42361 2.93754 9.51757 2.84726 9.63604 2.79171C9.75437 2.73615 9.8759 2.70837 10.0006 2.70837C10.1252 2.70837 10.2465 2.73615 10.3646 2.79171C10.4826 2.84726 10.5764 2.93754 10.6458 3.06254L18.3125 15.8542C18.3819 15.9792 18.4201 16.1112 18.4271 16.25C18.434 16.3889 18.4028 16.5139 18.3333 16.625C18.2639 16.7362 18.1736 16.8264 18.0625 16.8959C17.9514 16.9653 17.8201 17 17.6685 17H2.33146ZM3.64583 15.5H16.3542L10 4.91671L3.64583 15.5ZM9.99562 14.5C10.2069 14.5 10.3854 14.4286 10.5312 14.2857C10.6771 14.1427 10.75 13.9657 10.75 13.7544C10.75 13.5432 10.6785 13.3646 10.5356 13.2188C10.3927 13.073 10.2156 13 10.0044 13C9.79312 13 9.61458 13.0715 9.46875 13.2144C9.32291 13.3573 9.25 13.5344 9.25 13.7457C9.25 13.9569 9.32146 14.1355 9.46437 14.2813C9.60729 14.4271 9.78437 14.5 9.99562 14.5ZM9.99562 12C10.2069 12 10.3854 11.9282 10.5312 11.7844C10.6771 11.6407 10.75 11.4625 10.75 11.25V8.75004C10.75 8.53754 10.6785 8.35942 10.5356 8.21567C10.3927 8.07192 10.2156 8.00004 10.0044 8.00004C9.79312 8.00004 9.61458 8.07192 9.46875 8.21567C9.32291 8.35942 9.25 8.53754 9.25 8.75004V11.25C9.25 11.4625 9.32146 11.6407 9.46437 11.7844C9.60729 11.9282 9.78437 12 9.99562 12Z" fill="#F7941E"/>
</g>
</svg>
