<svg width="24" height="25" viewBox="0 0 24 25" fill="none" xmlns="http://www.w3.org/2000/svg">
<mask id="mask0_5537_1874" style="mask-type:alpha" maskUnits="userSpaceOnUse" x="0" y="0" width="24" height="25">
<rect y="0.5" width="24" height="24" fill="black"/>
</mask>
<g mask="url(#mask0_5537_1874)">
<path d="M10.8 12.5L14.7 16.4C14.8834 16.5833 14.975 16.8167 14.975 17.1C14.975 17.3833 14.8834 17.6167 14.7 17.8C14.5167 17.9833 14.2834 18.075 14 18.075C13.7167 18.075 13.4834 17.9833 13.3 17.8L8.70005 13.2C8.60005 13.1 8.52922 12.9917 8.48755 12.875C8.44588 12.7583 8.42505 12.6333 8.42505 12.5C8.42505 12.3667 8.44588 12.2417 8.48755 12.125C8.52922 12.0083 8.60005 11.9 8.70005 11.8L13.3 7.19999C13.4834 7.01665 13.7167 6.92499 14 6.92499C14.2834 6.92499 14.5167 7.01665 14.7 7.19999C14.8834 7.38332 14.975 7.61665 14.975 7.89999C14.975 8.18332 14.8834 8.41665 14.7 8.59999L10.8 12.5Z" fill="black"/>
</g>
</svg>
