<svg width="24" height="25" viewBox="0 0 24 25" fill="none" xmlns="http://www.w3.org/2000/svg">
<mask id="mask0_5126_1244" style="mask-type:alpha" maskUnits="userSpaceOnUse" x="0" y="0" width="24" height="25">
<rect y="0.5" width="24" height="24" fill="#CACACA"/>
</mask>
<g mask="url(#mask0_5126_1244)">
<path d="M5.25 21C5.0375 21 4.85938 20.928 4.71563 20.7842C4.57188 20.6404 4.5 20.4622 4.5 20.2496C4.5 20.037 4.57188 19.8589 4.71563 19.7154C4.85938 19.5718 5.0375 19.5 5.25 19.5H18.75C18.9625 19.5 19.1406 19.5719 19.2843 19.7157C19.4281 19.8595 19.5 20.0377 19.5 20.2503C19.5 20.4629 19.4281 20.641 19.2843 20.7846C19.1406 20.9282 18.9625 21 18.75 21H5.25ZM11.9987 16.7769C11.879 16.7769 11.7673 16.7576 11.6634 16.7192C11.5596 16.6807 11.4609 16.6147 11.3673 16.5211L7.87308 13.0269C7.73461 12.8884 7.66378 12.7144 7.66058 12.5048C7.65736 12.2952 7.72819 12.1179 7.87308 11.9731C8.01794 11.8282 8.19357 11.7558 8.39997 11.7558C8.60637 11.7558 8.78201 11.8282 8.92687 11.9731L11.25 14.2962V4.75C11.25 4.5375 11.3219 4.35938 11.4657 4.21563C11.6095 4.07188 11.7877 4 12.0003 4C12.2129 4 12.391 4.07188 12.5346 4.21563C12.6782 4.35938 12.7499 4.5375 12.7499 4.75V14.2962L15.0731 11.9731C15.2115 11.8346 15.3856 11.7638 15.5952 11.7606C15.8048 11.7574 15.982 11.8282 16.1269 11.9731C16.2718 12.1179 16.3442 12.2936 16.3442 12.5C16.3442 12.7064 16.2718 12.882 16.1269 13.0269L12.6327 16.5211C12.5391 16.6147 12.4399 16.6807 12.3352 16.7192C12.2305 16.7576 12.1184 16.7769 11.9987 16.7769Z" fill="black"/>
</g>
</svg>
