<svg width="24" height="24" viewBox="0 0 24 24" fill="none" xmlns="http://www.w3.org/2000/svg">
<mask id="mask0_5212_6805" style="mask-type:alpha" maskUnits="userSpaceOnUse" x="0" y="0" width="24" height="24">
<rect width="24" height="24" fill="#D9D9D9"/>
</mask>
<g mask="url(#mask0_5212_6805)">
<path d="M5.25 20.5C5.0375 20.5 4.85938 20.428 4.71563 20.2842C4.57188 20.1404 4.5 19.9622 4.5 19.7496C4.5 19.537 4.57188 19.3589 4.71563 19.2154C4.85938 19.0718 5.0375 19 5.25 19H18.75C18.9625 19 19.1406 19.0719 19.2843 19.2157C19.4281 19.3595 19.5 19.5377 19.5 19.7503C19.5 19.9629 19.4281 20.141 19.2843 20.2846C19.1406 20.4282 18.9625 20.5 18.75 20.5H5.25ZM11.9987 16.2769C11.879 16.2769 11.7673 16.2576 11.6634 16.2192C11.5596 16.1807 11.4609 16.1147 11.3673 16.0211L7.87308 12.5269C7.73461 12.3884 7.66378 12.2144 7.66058 12.0048C7.65736 11.7952 7.72819 11.6179 7.87308 11.4731C8.01794 11.3282 8.19357 11.2558 8.39997 11.2558C8.60637 11.2558 8.78201 11.3282 8.92687 11.4731L11.25 13.7962V4.25C11.25 4.0375 11.3219 3.85938 11.4657 3.71563C11.6095 3.57188 11.7877 3.5 12.0003 3.5C12.2129 3.5 12.391 3.57188 12.5346 3.71563C12.6782 3.85938 12.7499 4.0375 12.7499 4.25V13.7962L15.0731 11.4731C15.2115 11.3346 15.3856 11.2638 15.5952 11.2606C15.8048 11.2574 15.982 11.3282 16.1269 11.4731C16.2718 11.6179 16.3442 11.7936 16.3442 12C16.3442 12.2064 16.2718 12.382 16.1269 12.5269L12.6327 16.0211C12.5391 16.1147 12.4399 16.1807 12.3352 16.2192C12.2305 16.2576 12.1184 16.2769 11.9987 16.2769Z" fill="white"/>
</g>
</svg>
