<svg width="18" height="21" viewBox="0 0 18 21" fill="none" xmlns="http://www.w3.org/2000/svg">
<g clip-path="url(#clip0_5126_1230)">
<path d="M11.0144 10.0938L4.78809 8.875V17.8806C4.78801 17.9785 4.80533 18.0754 4.83904 18.1659C4.87275 18.2563 4.9222 18.3385 4.98454 18.4076C5.04688 18.4768 5.1209 18.5316 5.20234 18.5689C5.28379 18.6062 5.37106 18.6252 5.45915 18.625H16.2029C16.2911 18.6254 16.3785 18.6065 16.4601 18.5692C16.5416 18.532 16.6158 18.4772 16.6782 18.408C16.7407 18.3389 16.7902 18.2567 16.824 18.1662C16.8578 18.0756 16.8752 17.9786 16.8751 17.8806V14.5625L11.0144 10.0938Z" fill="#185C37"/>
<path d="M11.0144 2.375H5.45915C5.37106 2.37476 5.28379 2.39383 5.20234 2.43114C5.1209 2.46844 5.04688 2.52324 4.98454 2.5924C4.9222 2.66155 4.87275 2.7437 4.83904 2.83413C4.80533 2.92456 4.78801 3.0215 4.78809 3.11938V6.4375L11.0144 10.5L14.3112 11.7188L16.8751 10.5V6.4375L11.0144 2.375Z" fill="#21A366"/>
<path d="M4.78809 6.4375H11.0144V10.5H4.78809V6.4375Z" fill="#107C41"/>
<path opacity="0.1" d="M9.24421 5.625H4.78809V15.7812H9.24421C9.42177 15.7803 9.59184 15.7016 9.71755 15.5623C9.84327 15.4229 9.91451 15.2342 9.91584 15.0369V6.36937C9.91451 6.17209 9.84327 5.98333 9.71755 5.84399C9.59184 5.70466 9.42177 5.62598 9.24421 5.625Z" fill="black"/>
<path opacity="0.2" d="M8.87802 6.03125H4.78809V16.1875H8.87802C9.05559 16.1865 9.22565 16.1078 9.35136 15.9685C9.47708 15.8292 9.54832 15.6404 9.54965 15.4431V6.77562C9.54832 6.57834 9.47708 6.38958 9.35136 6.25024C9.22565 6.11091 9.05559 6.03223 8.87802 6.03125Z" fill="black"/>
<path opacity="0.2" d="M8.87802 6.03125H4.78809V15.375H8.87802C9.05559 15.374 9.22565 15.2953 9.35136 15.156C9.47708 15.0167 9.54832 14.8279 9.54965 14.6306V6.77562C9.54832 6.57834 9.47708 6.38958 9.35136 6.25024C9.22565 6.11091 9.05559 6.03223 8.87802 6.03125Z" fill="black"/>
<path opacity="0.2" d="M8.51184 6.03125H4.78809V15.375H8.51184C8.6894 15.374 8.85946 15.2953 8.98518 15.156C9.11089 15.0167 9.18213 14.8279 9.18346 14.6306V6.77562C9.18213 6.57834 9.11089 6.38958 8.98518 6.25024C8.85946 6.11091 8.6894 6.03223 8.51184 6.03125Z" fill="black"/>
<path d="M1.79663 6.03125H8.51175C8.68963 6.03109 8.86029 6.1094 8.98623 6.24898C9.11217 6.38856 9.18308 6.57799 9.18338 6.77563V14.2244C9.18308 14.422 9.11217 14.6114 8.98623 14.751C8.86029 14.8906 8.68963 14.9689 8.51175 14.9688H1.79663C1.70849 14.9691 1.62115 14.9501 1.53965 14.9128C1.45814 14.8755 1.38405 14.8207 1.32165 14.7516C1.25925 14.6824 1.20975 14.6002 1.17601 14.5098C1.14226 14.4193 1.12493 14.3223 1.125 14.2244V6.77563C1.12493 6.6777 1.14226 6.58071 1.17601 6.49024C1.20975 6.39977 1.25925 6.31759 1.32165 6.24843C1.38405 6.17927 1.45814 6.12448 1.53965 6.08721C1.62115 6.04994 1.70849 6.03092 1.79663 6.03125Z" fill="url(#paint0_linear_5126_1230)"/>
<path d="M3.20605 12.9206L4.61849 10.4931L3.32474 8.07935H4.36368L5.06962 9.62497C5.13487 9.77122 5.18212 9.87997 5.20349 9.95247H5.21305C5.25918 9.83539 5.30793 9.72164 5.3593 9.61122L6.11418 8.08185H7.07043L5.74349 10.4818L7.10418 12.9225H6.08662L5.27099 11.2281C5.23323 11.1552 5.20105 11.0789 5.1748 11H5.1613C5.13747 11.0769 5.10576 11.1505 5.06681 11.2193L4.22699 12.9206H3.20605Z" fill="white"/>
<path d="M16.2032 2.375H11.0142V6.4375H16.8748V3.11938C16.8749 3.02145 16.8576 2.92446 16.8238 2.83399C16.7901 2.74352 16.7406 2.66134 16.6782 2.59218C16.6158 2.52302 16.5417 2.46823 16.4602 2.43096C16.3787 2.39369 16.2914 2.37467 16.2032 2.375Z" fill="#33C481"/>
<path d="M11.0142 10.5H16.8748V14.5625H11.0142V10.5Z" fill="#107C41"/>
</g>
<defs>
<linearGradient id="paint0_linear_5126_1230" x1="2.52788" y1="5.44625" x2="8.65333" y2="14.9938" gradientUnits="userSpaceOnUse">
<stop stop-color="#18884F"/>
<stop offset="0.5" stop-color="#117E43"/>
<stop offset="1" stop-color="#0B6631"/>
</linearGradient>
<clipPath id="clip0_5126_1230">
<rect width="18" height="20" fill="white" transform="translate(0 0.5)"/>
</clipPath>
</defs>
</svg>
