<svg width="109" height="29" viewBox="0 0 109 29" fill="none" xmlns="http://www.w3.org/2000/svg">
          <path d="M14.9618 10.0357L14.6929 9.8842C14.6322 9.8501 14.5716 9.8179 14.511 9.7876C14.5186 10.6532 14.3084 11.5321 13.8519 12.339L11.3062 16.8375C9.9557 19.224 6.9668 20.101 4.54993 18.8566C4.56697 20.6143 5.49319 22.3152 7.13159 23.2433L7.40055 23.3948C8.22259 23.8589 9.11661 24.071 9.99737 24.054C8.20176 25.7833 5.81519 25.8818 5.81519 25.8818C7.01416 27.2096 9.23405 27.1262 9.23405 27.1262C9.73977 27.1262 10.2247 26.9501 10.6414 26.7171C11.3573 26.3174 11.9369 25.7151 12.3423 25.001L14.3406 21.4723L14.6076 21.0026L16.8881 16.9738C18.2727 14.5266 17.4128 11.4203 14.9656 10.0357H14.9618Z" fill="#F6931F" />
          <path d="M7.75471 11.8068C9.10521 9.42021 12.0941 8.54323 14.511 9.78766C14.4939 8.02993 13.5677 6.32903 11.9293 5.40092L11.6604 5.24939C10.8383 4.78533 9.94429 4.57319 9.06354 4.59024C10.8591 2.86092 13.2457 2.76243 13.2457 2.76243C12.0468 1.43466 9.82686 1.51611 9.82686 1.51611C9.27378 1.51611 8.74912 1.72635 8.30779 1.98964C7.64296 2.3874 7.10314 2.9632 6.72242 3.63751L4.72225 7.17001L4.45518 7.63975L2.17658 11.6704C0.791985 14.1176 1.65191 17.2239 4.09909 18.6085L4.36805 18.76C4.42866 18.7941 4.48928 18.8263 4.54989 18.8566C4.54231 17.991 4.75256 17.1122 5.20904 16.3053L7.75471 11.8068Z" fill="#175C8D" />
          <path d="M11.3061 16.8375L13.8518 12.339C14.3083 11.5321 14.5204 10.6532 14.511 9.78763C12.0941 8.54321 9.10518 9.42018 7.75469 11.8067L5.20901 16.3052C4.75253 17.1121 4.54039 17.991 4.54986 18.8566C6.96674 20.101 9.95564 19.2241 11.3061 16.8375Z" fill="#194766" />
          <path d="M24.2444 23.7988V21.1981H26.3677V16.7148H29.1103V21.1981H33.7604V23.7988H24.2444ZM24.483 11.7068H30.7071V8.98875C30.7071 8.03412 30.2544 7.70076 29.3471 7.70076H24.4811V5.10205H30.6578C32.5425 5.10205 33.4251 6.03206 33.4251 7.91669V19.2927H30.7071V14.3074H24.483V11.7087V11.7068Z" fill="#175C8D" />
          <path d="M35.5011 8.96374C35.5011 6.38776 37.1471 4.83838 39.5318 4.83838C41.9164 4.83838 43.5624 6.38776 43.5624 8.96374V11.8731C43.5624 14.4491 41.9164 16.0477 39.5318 16.0477C37.1471 16.0477 35.5011 14.4491 35.5011 11.8731V8.96374ZM39.8424 23.7984C37.9104 23.7984 36.8857 22.8911 36.8857 20.9837V17.2163H39.6037V20.389C39.6037 21.1277 39.8651 21.319 40.5584 21.319H45.161V4.95771H47.7597V23.7984H39.8424ZM38.2438 11.8977C38.2438 13.091 38.9124 13.4963 39.5318 13.4963C40.1511 13.4963 40.8197 13.091 40.8197 11.8977V8.96374C40.8197 7.79508 40.1511 7.36511 39.5318 7.36511C38.9124 7.36511 38.2438 7.79508 38.2438 8.96374V11.8977Z" fill="#175C8D" />
          <path d="M55.1277 15.8264H52.4021L53.8132 6.78776C54.0045 5.47325 55.033 4.80273 56.3475 4.80273H57.0408C58.4045 4.80273 59.3838 5.54333 59.5751 6.78776L60.9616 15.8264H58.2359L57.1127 7.93558C57.0654 7.62495 56.9688 7.43365 56.7775 7.43365H56.6108C56.4195 7.43365 56.3229 7.60033 56.2755 7.93558L55.1277 15.8264ZM62.4693 16.6636C64.3577 16.6636 65.0756 17.4288 65.0756 19.1752V23.6945H62.3499V20.1317C62.3499 19.3665 62.1833 19.1525 61.3461 19.1525H53.7431V16.6655H62.4712L62.4693 16.6636ZM65.0756 4.80273V15.8264H62.3499V4.80273H65.0756Z" fill="#175C8D" />
          <path d="M67.394 4.94669H75.2129V7.55297H70.1197V12.0003C70.1197 12.7902 70.4076 13.1709 71.2201 13.1709H75.3322V15.7772H70.6936C68.3733 15.7772 67.394 14.9173 67.394 12.2144V4.94669ZM71.1254 23.6926C69.2124 23.6926 68.3278 22.9028 68.3278 21.0144V17.3796H71.0534V20.3931C71.0534 21.039 71.2448 21.2057 71.938 21.2057H76.482V4.80273H79.2322V10.7086H80.6187V13.3148H79.2322V23.6926H71.1273H71.1254Z" fill="#175C8D" />
          <path d="M87.265 4.94669C89.1534 4.94669 90.1346 5.87859 90.1346 7.7689V14.2733H90.8278V16.8795H81.6945V14.2733H83.2495V10.1119H85.9998V14.2733H87.3862V8.84475C87.3862 7.88823 86.9317 7.55297 86.0471 7.55297H82.1017V4.94669H87.2669H87.265ZM85.8785 23.6926C83.9409 23.6926 82.9143 22.7835 82.9143 20.8704V17.9289H85.6645V20.2719C85.6645 21.0125 85.9032 21.2038 86.621 21.2038H91.1877V4.80273H93.9133V10.5892H95.3244V13.1955H93.9133V23.6926H85.8785Z" fill="#175C8D" />
          <path d="M99.9139 23.5013C97.5236 23.5013 96.6144 22.4975 96.6144 19.9385V12.9095H101.325V7.5776H96.7583V4.97131H104.075V15.3718H99.3419V19.6999C99.3419 20.5598 99.6525 20.8723 100.442 20.8723H104.435V23.5032H99.9158L99.9139 23.5013ZM109 4.80273V23.6926H106.25V4.80273H109Z" fill="#175C8D" />
        </svg>
