<svg width="24" height="25" viewBox="0 0 24 25" fill="none" xmlns="http://www.w3.org/2000/svg">
<mask id="mask0_11778_34187" style="mask-type:alpha" maskUnits="userSpaceOnUse" x="0" y="0" width="24" height="25">
<rect y="0.300293" width="24" height="24" fill="#D9D9D9"/>
</mask>
<g mask="url(#mask0_11778_34187)">
<path d="M10.8923 21.8002C10.5513 21.8002 10.2567 21.6871 10.0087 21.4608C9.76059 21.2345 9.60963 20.956 9.55578 20.6253L9.31156 18.7541C9.04361 18.6643 8.76893 18.5387 8.48751 18.3772C8.20609 18.2156 7.95448 18.0425 7.73269 17.8579L5.99998 18.5945C5.68588 18.7329 5.37018 18.7464 5.05288 18.6348C4.73558 18.5233 4.48912 18.3208 4.31348 18.0272L3.18656 16.0733C3.01093 15.7797 2.96028 15.4692 3.03463 15.1416C3.109 14.8141 3.27951 14.5439 3.54616 14.3311L5.04426 13.206C5.02118 13.0573 5.00483 12.908 4.99521 12.758C4.98559 12.608 4.98078 12.4586 4.98078 12.3099C4.98078 12.1676 4.98559 12.023 4.99521 11.8762C5.00483 11.7294 5.02118 11.5688 5.04426 11.3945L3.54616 10.2695C3.27951 10.0567 3.1106 9.78487 3.03943 9.45412C2.96828 9.12335 3.02053 8.81118 3.19618 8.51759L4.31348 6.59259C4.48912 6.30543 4.73558 6.10447 5.05288 5.98972C5.37018 5.87499 5.68588 5.88684 5.99998 6.02529L7.72306 6.75224C7.96409 6.56121 8.22147 6.38653 8.49519 6.22819C8.76892 6.06984 9.03783 5.94259 9.30193 5.84644L9.55578 3.97527C9.60963 3.64452 9.76059 3.366 10.0087 3.13972C10.2567 2.91344 10.5513 2.80029 10.8923 2.80029H13.1077C13.4487 2.80029 13.7432 2.91344 13.9913 3.13972C14.2394 3.366 14.3903 3.64452 14.4442 3.97527L14.6884 5.85607C14.9884 5.96504 15.2599 6.09228 15.5029 6.23779C15.7458 6.38331 15.991 6.55479 16.2384 6.75224L18.0096 6.02529C18.3237 5.88684 18.6394 5.87499 18.9567 5.98972C19.274 6.10447 19.5205 6.30543 19.6961 6.59259L20.8134 8.52722C20.989 8.8208 21.0397 9.13137 20.9653 9.45892C20.891 9.78647 20.7205 10.0567 20.4538 10.2695L18.9173 11.4233C18.9532 11.5849 18.9727 11.7358 18.9759 11.8762C18.9791 12.0166 18.9807 12.158 18.9807 12.3003C18.9807 12.4362 18.9775 12.5743 18.9711 12.7147C18.9647 12.8551 18.9416 13.0157 18.9019 13.1964L20.4096 14.3311C20.6762 14.5439 20.8483 14.8141 20.9259 15.1416C21.0035 15.4692 20.9544 15.7797 20.7788 16.0733L19.6461 18.0175C19.4705 18.3111 19.2224 18.5137 18.9019 18.6252C18.5814 18.7368 18.2641 18.7233 17.95 18.5848L16.2384 17.8483C15.991 18.0457 15.7384 18.2204 15.4807 18.3723C15.223 18.5243 14.9589 18.6483 14.6884 18.7445L14.4442 20.6253C14.3903 20.956 14.2394 21.2345 13.9913 21.4608C13.7432 21.6871 13.4487 21.8002 13.1077 21.8002H10.8923ZM11 20.3003H12.9654L13.325 17.6214C13.8352 17.4881 14.3016 17.2987 14.724 17.0531C15.1464 16.8076 15.5538 16.4919 15.9461 16.106L18.4308 17.1503L19.4154 15.4503L17.2461 13.8156C17.3295 13.5567 17.3862 13.3028 17.4163 13.0541C17.4465 12.8054 17.4615 12.5541 17.4615 12.3003C17.4615 12.04 17.4465 11.7887 17.4163 11.5464C17.3862 11.3041 17.3295 11.0567 17.2461 10.8041L19.4346 9.15027L18.45 7.45027L15.9365 8.50989C15.6019 8.15219 15.201 7.83617 14.7336 7.56182C14.2663 7.28745 13.7936 7.09322 13.3154 6.97912L13 4.30027H11.0154L10.6846 6.96949C10.1743 7.09001 9.70319 7.27463 9.27113 7.52334C8.83908 7.77206 8.42691 8.09258 8.03461 8.48489L5.54998 7.45027L4.56536 9.15027L6.72498 10.7599C6.64165 10.9971 6.58332 11.2439 6.54998 11.5003C6.51665 11.7567 6.49998 12.0266 6.49998 12.3099C6.49998 12.5701 6.51665 12.8253 6.54998 13.0753C6.58332 13.3253 6.63844 13.5721 6.71536 13.8156L4.56536 15.4503L5.54998 17.1503L8.02498 16.1003C8.40447 16.49 8.81023 16.8093 9.24228 17.058C9.67433 17.3067 10.1519 17.4977 10.675 17.631L11 20.3003ZM12.0115 15.3002C12.8436 15.3002 13.5516 15.0083 14.1355 14.4243C14.7195 13.8403 15.0115 13.1323 15.0115 12.3003C15.0115 11.4682 14.7195 10.7602 14.1355 10.1762C13.5516 9.59228 12.8436 9.30029 12.0115 9.30029C11.1692 9.30029 10.4587 9.59228 9.87981 10.1762C9.30098 10.7602 9.01156 11.4682 9.01156 12.3003C9.01156 13.1323 9.30098 13.8403 9.87981 14.4243C10.4587 15.0083 11.1692 15.3002 12.0115 15.3002Z" fill="#4B4B4B"/>
</g>
</svg>
